<?xml version="1.0" encoding="UTF-8" standalone="no"?>
<!DOCTYPE svg PUBLIC "-//W3C//DTD SVG 1.1//EN" "http://www.w3.org/Graphics/SVG/1.1/DTD/svg11.dtd">
<svg width="100%" height="100%" viewBox="0 0 689 137" version="1.1" xmlns="http://www.w3.org/2000/svg" xmlns:xlink="http://www.w3.org/1999/xlink" xml:space="preserve" xmlns:serif="http://www.serif.com/" style="fill-rule:evenodd;clip-rule:evenodd;stroke-linejoin:round;stroke-miterlimit:2;">
    <g transform="matrix(1,0,0,1,-53.9006,-40.2257)">
        <g transform="matrix(4.32545,0,0,4.32545,-805.522,-842.196)">
            <g transform="matrix(36,0,0,36,197.214,235.183)">
                <path d="M0.041,-0.7L0.209,-0.7C0.264,-0.7 0.305,-0.685 0.332,-0.656C0.359,-0.627 0.373,-0.584 0.373,-0.527L0.373,-0.173C0.373,-0.116 0.359,-0.073 0.332,-0.044C0.305,-0.015 0.264,-0 0.209,-0L0.041,-0L0.041,-0.7ZM0.207,-0.1C0.225,-0.1 0.239,-0.105 0.249,-0.116C0.258,-0.127 0.263,-0.144 0.263,-0.168L0.263,-0.532C0.263,-0.556 0.258,-0.573 0.249,-0.584C0.239,-0.595 0.225,-0.6 0.207,-0.6L0.151,-0.6L0.151,-0.1L0.207,-0.1Z" style="fill-rule:nonzero;"/>
            </g>
            <g transform="matrix(36,0,0,36,211.758,235.183)">
                <path d="M0.126,-0.7L0.275,-0.7L0.389,-0L0.279,-0L0.259,-0.139L0.259,-0.137L0.134,-0.137L0.114,-0L0.012,-0L0.126,-0.7ZM0.246,-0.232L0.197,-0.578L0.195,-0.578L0.147,-0.232L0.246,-0.232Z" style="fill-rule:nonzero;"/>
            </g>
            <g transform="matrix(36,0,0,36,226.194,235.183)">
                <path d="M0.041,-0.7L0.151,-0.7L0.151,-0.405L0.291,-0.7L0.401,-0.7L0.27,-0.443L0.403,-0L0.288,-0L0.195,-0.312L0.151,-0.223L0.151,-0L0.041,-0L0.041,-0.7Z" style="fill-rule:nonzero;"/>
            </g>
            <g transform="matrix(36,0,0,36,240.522,235.183)">
                <path d="M0.2,0.01C0.146,0.01 0.105,-0.005 0.076,-0.036C0.047,-0.067 0.033,-0.11 0.033,-0.166L0.033,-0.534C0.033,-0.59 0.047,-0.633 0.076,-0.664C0.105,-0.695 0.146,-0.71 0.2,-0.71C0.254,-0.71 0.295,-0.695 0.324,-0.664C0.353,-0.633 0.367,-0.59 0.367,-0.534L0.367,-0.166C0.367,-0.11 0.353,-0.067 0.324,-0.036C0.295,-0.005 0.254,0.01 0.2,0.01ZM0.2,-0.09C0.238,-0.09 0.257,-0.113 0.257,-0.159L0.257,-0.541C0.257,-0.587 0.238,-0.61 0.2,-0.61C0.162,-0.61 0.143,-0.587 0.143,-0.541L0.143,-0.159C0.143,-0.113 0.162,-0.09 0.2,-0.09Z" style="fill-rule:nonzero;"/>
            </g>
            <g transform="matrix(36,0,0,36,254.778,235.183)">
                <path d="M0.127,-0.6L0.012,-0.6L0.012,-0.7L0.352,-0.7L0.352,-0.6L0.237,-0.6L0.237,-0L0.127,-0L0.127,-0.6Z" style="fill-rule:nonzero;"/>
            </g>
            <g transform="matrix(36,0,0,36,266.226,235.183)">
                <path d="M0.126,-0.7L0.275,-0.7L0.389,-0L0.279,-0L0.259,-0.139L0.259,-0.137L0.134,-0.137L0.114,-0L0.012,-0L0.126,-0.7ZM0.246,-0.232L0.197,-0.578L0.195,-0.578L0.147,-0.232L0.246,-0.232Z" style="fill-rule:nonzero;"/>
            </g>
            <g transform="matrix(36,0,0,36,280.662,235.183)">
                <path d="M0.041,-0.7L0.151,-0.7L0.151,-0.415L0.269,-0.415L0.269,-0.7L0.379,-0.7L0.379,-0L0.269,-0L0.269,-0.315L0.151,-0.315L0.151,-0L0.041,-0L0.041,-0.7Z" style="fill-rule:nonzero;"/>
            </g>
            <g transform="matrix(36,0,0,36,301.542,235.183)">
                <path d="M0.041,-0.7L0.203,-0.7C0.258,-0.7 0.299,-0.685 0.326,-0.656C0.353,-0.627 0.367,-0.584 0.367,-0.527L0.367,-0.458C0.367,-0.401 0.353,-0.358 0.326,-0.329C0.299,-0.3 0.258,-0.285 0.203,-0.285L0.151,-0.285L0.151,-0L0.041,-0L0.041,-0.7ZM0.203,-0.385C0.221,-0.385 0.235,-0.39 0.244,-0.4C0.253,-0.41 0.257,-0.427 0.257,-0.451L0.257,-0.534C0.257,-0.558 0.253,-0.575 0.244,-0.585C0.235,-0.595 0.221,-0.6 0.203,-0.6L0.151,-0.6L0.151,-0.385L0.203,-0.385Z" style="fill-rule:nonzero;"/>
            </g>
            <g transform="matrix(36,0,0,36,315.438,235.183)">
                <path d="M0.041,-0.7L0.341,-0.7L0.341,-0.6L0.151,-0.6L0.151,-0.415L0.302,-0.415L0.302,-0.315L0.151,-0.315L0.151,-0.1L0.341,-0.1L0.341,-0L0.041,-0L0.041,-0.7Z" style="fill-rule:nonzero;"/>
            </g>
            <g transform="matrix(36,0,0,36,328.506,235.183)">
                <path d="M0.041,-0.7L0.179,-0.7L0.286,-0.281L0.288,-0.281L0.288,-0.7L0.386,-0.7L0.386,-0L0.273,-0L0.141,-0.511L0.139,-0.511L0.139,-0L0.041,-0L0.041,-0.7ZM0.075,-0.775C0.088,-0.804 0.101,-0.825 0.116,-0.839C0.131,-0.852 0.147,-0.859 0.166,-0.859C0.178,-0.859 0.189,-0.857 0.198,-0.854C0.206,-0.851 0.216,-0.846 0.226,-0.84C0.232,-0.837 0.238,-0.834 0.244,-0.831C0.249,-0.828 0.255,-0.827 0.26,-0.827C0.268,-0.827 0.275,-0.83 0.281,-0.836C0.287,-0.842 0.293,-0.852 0.3,-0.866L0.353,-0.834C0.34,-0.805 0.327,-0.784 0.312,-0.771C0.297,-0.757 0.281,-0.75 0.262,-0.75C0.25,-0.75 0.24,-0.752 0.231,-0.755C0.222,-0.758 0.212,-0.763 0.202,-0.769C0.196,-0.772 0.19,-0.775 0.185,-0.778C0.179,-0.781 0.173,-0.782 0.168,-0.782C0.16,-0.782 0.153,-0.779 0.147,-0.773C0.141,-0.767 0.135,-0.757 0.128,-0.743L0.075,-0.775Z" style="fill-rule:nonzero;"/>
            </g>
            <g transform="matrix(36,0,0,36,343.878,235.183)">
                <path d="M0.126,-0.7L0.275,-0.7L0.389,-0L0.279,-0L0.259,-0.139L0.259,-0.137L0.134,-0.137L0.114,-0L0.012,-0L0.126,-0.7ZM0.246,-0.232L0.197,-0.578L0.195,-0.578L0.147,-0.232L0.246,-0.232Z" style="fill-rule:nonzero;"/>
            </g>
        </g>
    </g>
</svg>
