<?xml version="1.0" encoding="UTF-8"?>
<!DOCTYPE svg PUBLIC "-//W3C//DTD SVG 1.1//EN" "http://www.w3.org/Graphics/SVG/1.1/DTD/svg11.dtd">
<svg version="1.1" xmlns="http://www.w3.org/2000/svg" xmlns:xlink="http://www.w3.org/1999/xlink" x="0" y="0" width="360" height="100" viewBox="0, 0, 360, 100">
  <g id="Layer_1">
    <path d="M13.323,9.843 C8.671,9.843 1.946,13.247 1.946,25.22 C1.946,36.775 8.375,40.497 13.302,40.497 C16.869,40.497 20.202,38.634 22.079,35.568 L19.594,33.952 C18.214,36.235 15.837,37.598 13.49,37.598 C9.089,37.598 5.219,33.006 5.219,24.923 C5.219,16.977 8.981,12.529 13.209,12.529 C15.55,12.529 17.733,13.915 18.94,16 C19.035,16.165 19.105,16.289 19.105,16.512 C19.105,16.631 19.085,16.751 19.085,16.87 C19.085,16.926 19.083,17.186 19.304,17.341 L22.493,15.767 C20.885,12.161 17.296,9.843 13.323,9.843 z" fill="#383838"/>
    <path d="M46.084,29.134 C46.084,21.563 41.305,17.589 36.321,17.589 C30.733,17.589 25.941,22.43 25.941,29.206 C25.941,35.877 30.692,40.58 36.219,40.58 C41.412,40.58 46.084,36.404 46.084,29.134 z M36.086,20.526 C39.249,20.526 42.606,23.256 42.606,29.278 C42.606,34.797 39.446,37.598 36.246,37.598 C32.751,37.598 29.592,34.316 29.592,28.906 C29.592,23.531 32.732,20.526 36.086,20.526 z" fill="#383838"/>
    <path d="M60.415,17.537 C55.177,17.537 50.332,21.282 50.332,29.287 C50.332,36.594 54.905,40.503 60.862,40.503 C63.992,40.503 66.834,39.358 68.712,37.1 L66.806,35.236 C65.377,36.837 63.31,37.703 61.129,37.703 C58.196,37.703 53.948,36.086 53.687,29.52 L69.25,29.52 C69.384,28.013 69.314,26.605 69.099,25.332 C68.102,19.445 64.01,17.537 60.415,17.537 z M53.8,26.869 C54.483,21.697 57.82,20.192 60.174,20.192 C63.728,20.192 66.266,23.313 65.854,26.869 z" fill="#383838"/>
    <path d="M75.024,18.087 L74.983,30.307 C74.976,32.216 74.996,34.14 75.852,36.066 C77.133,38.946 79.815,40.539 82.667,40.539 C85.417,40.539 88.011,39.064 89.44,36.645 L89.398,38.302 C89.384,38.861 89.39,39.435 89.481,40 L93.126,40 C92.916,39.345 92.878,38.654 92.878,38.012 L92.878,18.087 L89.398,18.087 L89.398,30.141 C89.398,31.829 89.267,33.132 88.535,34.47 C87.53,36.305 85.58,37.722 83.468,37.722 C81.752,37.722 80.15,36.773 79.277,35.039 C78.498,33.492 78.504,31.777 78.504,30.307 L78.504,18.087 z" fill="#383838"/>
    <path d="M100.764,18.087 L100.764,40.041 L104.243,40.041 L104.243,29.354 C104.243,28.031 104.295,26.575 105.785,24.218 C107.778,21.068 110.395,20.522 111.946,20.522 C113.791,20.522 114.951,21.378 115.567,22.165 C115.855,22.533 116.012,22.912 116.381,23.265 L117.996,19.951 C116.617,18.538 114.598,17.556 112.135,17.556 C108.931,17.556 105.68,19.177 104.243,22.312 L104.368,18.087 z" fill="#383838"/>
    <path d="M161.812,21.276 C160.758,19.022 158.412,17.503 155.381,17.503 C151.202,17.503 146.154,20.472 146.154,28.853 C146.154,36.948 150.635,40.486 154.874,40.486 C157.678,40.486 160.269,38.94 161.647,36.479 L161.647,38.384 C161.647,38.905 161.678,39.468 161.854,40 L165.292,40 C165.119,39.329 165.086,38.634 165.085,37.97 L165.043,9.429 C165.043,9.179 165.065,9.045 165.236,8.78 C165.335,8.627 165.517,8.389 165.499,8.062 L161.812,8.062 z M155.542,20.322 C157.465,20.322 160.298,21.343 161.166,24.599 C161.438,25.619 161.534,26.843 161.534,29.291 C161.534,30.944 161.433,32.173 161.077,33.28 C160.233,35.911 157.963,37.44 155.676,37.44 C153.193,37.44 149.504,35.511 149.504,28.288 C149.504,22.045 153.019,20.322 155.542,20.322 z" fill="#383838"/>
    <path d="M183.313,10.976 C183.313,8.804 182.095,8.015 181.152,8.015 C180.227,8.015 179.103,8.754 179.103,10.65 C179.103,11.69 179.404,12.649 179.404,13.691 C179.404,14.633 179.195,15.539 178.936,16.347 L177.9,19.578 L180.551,20.241 L181.711,17.051 C182.905,13.768 183.313,12.237 183.313,10.976 z" fill="#383838"/>
    <path d="M192.704,40.041 L196.018,40.041 L198.918,31.26 L208.404,31.26 L211.718,40 L215.197,40 L203.64,9.553 L203.267,9.553 z M207.658,28.65 L199.581,28.65 L203.433,17.258 z" fill="#383838"/>
    <path d="M220.06,8.104 L220.06,10.879 L226.273,10.879 L226.273,37.225 L219.77,37.225 L219.77,40 L236.215,40 L236.215,37.225 L229.753,37.225 L229.753,8.104 z" fill="#383838"/>
    <path d="M252.415,17.537 C247.177,17.537 242.332,21.282 242.332,29.287 C242.332,36.594 246.905,40.503 252.862,40.503 C255.992,40.503 258.834,39.358 260.712,37.1 L258.806,35.236 C257.377,36.837 255.31,37.703 253.129,37.703 C250.196,37.703 245.948,36.086 245.687,29.52 L261.251,29.52 C261.384,28.013 261.314,26.605 261.099,25.332 C260.102,19.445 256.01,17.537 252.415,17.537 z M245.8,26.869 C246.483,21.697 249.821,20.192 252.174,20.192 C255.728,20.192 258.266,23.313 257.854,26.869 z" fill="#383838"/>
    <path d="M267.272,40 L270.794,40 L270.794,27.366 C270.794,25.889 270.971,24.816 271.883,23.601 C272.719,22.486 274.827,20.548 277.146,20.548 C278.246,20.548 279.331,20.995 280.119,21.937 C281.305,23.355 281.315,25.237 281.315,26.786 L281.315,40 L284.712,40 L284.712,26.703 C284.712,24.991 284.701,23.181 283.921,21.419 C282.829,18.951 280.581,17.548 278.082,17.548 C275.107,17.548 272.404,19.495 270.794,21.939 L270.794,18.087 L267.272,18.087 z" fill="#383838"/>
    <path d="M300.415,17.537 C295.177,17.537 290.332,21.282 290.332,29.287 C290.332,36.594 294.905,40.503 300.862,40.503 C303.992,40.503 306.834,39.358 308.712,37.1 L306.806,35.236 C305.377,36.837 303.31,37.703 301.129,37.703 C298.196,37.703 293.948,36.086 293.687,29.52 L309.251,29.52 C309.384,28.013 309.314,26.605 309.099,25.332 C308.102,19.445 304.01,17.537 300.415,17.537 z M293.8,26.869 C294.483,21.697 297.82,20.192 300.174,20.192 C303.728,20.192 306.266,23.313 305.854,26.869 z" fill="#383838"/>
    <path d="M356.961,40.621 L341.924,8.104 L339.065,9.553 L354.144,42.03 z" fill="#B8B8B8"/>
    <path d="M1.491,62.05 L1.491,65.074 L9.983,65.074 L9.983,92.041 L13.38,92.041 L13.38,65.074 L22.203,65.074 L22.203,62.05 z" fill="#383838"/>
    <path d="M36.415,69.537 C31.177,69.537 26.332,73.282 26.332,81.287 C26.332,88.594 30.905,92.503 36.862,92.503 C39.992,92.503 42.834,91.358 44.712,89.1 L42.806,87.236 C41.377,88.837 39.31,89.703 37.129,89.703 C34.196,89.703 29.948,88.086 29.687,81.52 L45.25,81.52 C45.384,80.013 45.314,78.605 45.099,77.332 C44.102,71.445 40.01,69.537 36.415,69.537 z M29.8,78.869 C30.483,73.697 33.82,72.192 36.174,72.192 C39.728,72.192 42.266,75.313 41.854,78.869 z" fill="#383838"/>
    <path d="M69.913,73.691 C68.187,71.159 65.24,69.63 61.713,69.63 C55.269,69.63 50.693,74.462 50.693,81.043 C50.693,87.655 55.293,92.539 61.495,92.539 C64.557,92.539 67.491,91.313 69.582,89.059 L67.594,86.739 C66.111,88.419 63.982,89.391 61.784,89.391 C57.511,89.391 54.254,85.81 54.254,80.686 C54.254,75.689 57.466,72.569 61.495,72.569 C65.239,72.569 67.04,75.183 67.167,75.441 C67.35,75.811 67.089,76.262 67.469,76.549 z" fill="#383838"/>
    <path d="M75.355,92 L78.876,92 L78.876,79.366 C78.876,77.889 79.054,76.816 79.966,75.601 C80.802,74.486 82.91,72.548 85.228,72.548 C86.329,72.548 87.414,72.995 88.201,73.937 C89.388,75.355 89.398,77.237 89.398,78.786 L89.398,92 L92.795,92 L92.795,78.703 C92.795,76.991 92.784,75.181 92.004,73.419 C90.912,70.951 88.664,69.548 86.165,69.548 C83.189,69.548 80.487,71.495 78.876,73.939 L78.876,61.222 C78.876,61.059 78.888,60.934 79.051,60.762 C79.161,60.646 79.356,60.498 79.356,60.247 C79.356,60.198 79.348,60.15 79.332,60.104 L75.355,60.104 z" fill="#383838"/>
    <path d="M133.308,61.801 C129.33,61.801 121.735,64.281 121.735,77.403 C121.735,88.723 128.073,92.458 133.292,92.458 C136.063,92.458 139.259,91.425 142.079,89.349 L142.079,77.667 L133.546,77.667 L133.546,80.567 L138.972,80.567 L138.972,87.692 C137.294,88.888 135.371,89.515 133.589,89.515 C131.654,89.515 129.528,88.75 127.901,86.896 C125.404,84.05 125.053,79.854 125.053,76.695 C125.053,73.91 125.388,71.227 126.558,69.025 C128.101,66.121 130.767,64.74 133.287,64.74 C135.956,64.74 138.081,66.269 138.996,68.273 C139.143,68.596 139.259,68.976 139.635,69.217 L141.996,66.814 C140.286,63.715 136.993,61.801 133.308,61.801 z" fill="#383838"/>
    <path d="M148.764,70.087 L148.764,92.041 L152.243,92.041 L152.243,81.354 C152.243,80.031 152.295,78.575 153.785,76.218 C155.778,73.068 158.395,72.522 159.946,72.522 C161.791,72.522 162.951,73.378 163.567,74.165 C163.855,74.533 164.012,74.912 164.381,75.265 L165.996,71.951 C164.617,70.538 162.598,69.556 160.135,69.556 C156.931,69.556 153.68,71.177 152.243,74.312 L152.368,70.087 z" fill="#383838"/>
    <path d="M190.084,81.134 C190.084,73.563 185.305,69.589 180.321,69.589 C174.733,69.589 169.941,74.43 169.941,81.206 C169.941,87.877 174.692,92.58 180.219,92.58 C185.412,92.58 190.084,88.404 190.084,81.134 z M180.086,72.526 C183.249,72.526 186.606,75.256 186.606,81.278 C186.606,86.797 183.446,89.598 180.246,89.598 C176.751,89.598 173.592,86.316 173.592,80.906 C173.592,75.531 176.732,72.526 180.086,72.526 z" fill="#383838"/>
    <path d="M195.024,70.087 L194.983,82.307 C194.976,84.216 194.996,86.14 195.852,88.066 C197.133,90.946 199.815,92.539 202.667,92.539 C205.417,92.539 208.011,91.064 209.44,88.645 L209.398,90.302 C209.384,90.861 209.39,91.435 209.481,92 L213.126,92 C212.916,91.345 212.878,90.654 212.878,90.012 L212.878,70.087 L209.398,70.087 L209.398,82.141 C209.398,83.829 209.267,85.132 208.535,86.47 C207.53,88.305 205.58,89.722 203.468,89.722 C201.752,89.722 200.15,88.773 199.277,87.039 C198.498,85.492 198.504,83.777 198.504,82.307 L198.504,70.087 z" fill="#383838"/>
    <path d="M218.858,70.087 L218.9,99.995 L222.421,99.995 L222.421,89.1 C223.885,91.269 226.339,92.586 229.002,92.586 C233.485,92.586 238.204,88.828 238.204,80.787 C238.204,73.048 233.62,69.59 229.305,69.59 C226.491,69.59 223.869,71.045 222.379,73.442 L222.379,70.087 z M228.038,72.534 C229.963,72.534 234.608,73.541 234.608,81.5 C234.608,88.415 230.07,89.521 228.016,89.521 C225.936,89.521 223.868,88.491 223.003,86.497 C222.36,85.018 222.374,83.211 222.374,80.035 C222.374,78.185 222.471,76.851 222.954,75.712 C223.789,73.743 225.829,72.534 228.038,72.534 z" fill="#383838"/>
  </g>
</svg>
